<svg width="197" height="46" viewBox="0 0 197 46" fill="none" xmlns="http://www.w3.org/2000/svg">
<path d="M72.3042 21.1013L70.8354 30.4607C70.1375 31.2732 69.2625 31.9086 68.2104 32.3669C67.1584 32.8149 66.0542 33.1274 64.8979 33.3044C63.7521 33.4919 62.674 33.5753 61.6636 33.5544C60.0802 33.5336 58.7313 33.2211 57.6167 32.6169C56.5125 32.0128 55.6323 31.1951 54.9761 30.1638C54.3198 29.1326 53.8771 27.9607 53.6479 26.6482C53.4188 25.3357 53.3927 23.9607 53.5698 22.5232L53.7417 21.2732C53.9396 19.794 54.325 18.3878 54.8979 17.0544C55.4813 15.7107 56.2365 14.518 57.1636 13.4763C58.0907 12.4347 59.1896 11.6169 60.4604 11.0232C61.7417 10.4294 63.1896 10.1482 64.8042 10.1794C66.4813 10.2003 67.9032 10.518 69.0698 11.1326C70.2469 11.7367 71.1584 12.6117 71.8042 13.7576C72.45 14.9034 72.825 16.3044 72.9292 17.9607L67.8198 17.9451C67.7677 17.2576 67.6375 16.6534 67.4292 16.1326C67.2313 15.6013 66.9136 15.1847 66.4761 14.8826C66.0386 14.5805 65.4396 14.4138 64.6792 14.3826C63.7625 14.3409 62.9813 14.5336 62.3354 14.9607C61.6896 15.3774 61.1479 15.9347 60.7104 16.6326C60.2834 17.3305 59.9448 18.0857 59.6948 18.8982C59.4552 19.7107 59.2834 20.4867 59.1792 21.2263L59.0073 22.5388C58.924 23.2367 58.8719 23.9763 58.8511 24.7576C58.8407 25.5388 58.9292 26.2732 59.1167 26.9607C59.3042 27.6482 59.6427 28.2107 60.1323 28.6482C60.6323 29.0857 61.3459 29.3149 62.2729 29.3357C62.6792 29.3461 63.0698 29.3201 63.4448 29.2576C63.8302 29.1951 64.2 29.0961 64.5542 28.9607C64.9188 28.8149 65.2677 28.6326 65.6011 28.4138L66.3042 24.8669H62.6011L63.2573 21.1013H72.3042ZM93.9917 21.3357L93.8823 22.2576C93.674 23.7472 93.2729 25.1794 92.6792 26.5544C92.0959 27.919 91.325 29.1326 90.3667 30.1951C89.4188 31.2576 88.2938 32.0961 86.9917 32.7107C85.6896 33.3149 84.2261 33.6013 82.6011 33.5701C81.0386 33.5388 79.7052 33.2055 78.6011 32.5701C77.5073 31.9347 76.6323 31.0857 75.9761 30.0232C75.3302 28.9607 74.8927 27.768 74.6636 26.4451C74.4344 25.1222 74.4032 23.7576 74.5698 22.3513L74.6792 21.4294C74.8875 19.9503 75.2886 18.5336 75.8823 17.1794C76.4761 15.8149 77.2521 14.6013 78.2104 13.5388C79.1688 12.4763 80.299 11.6482 81.6011 11.0544C82.9032 10.4503 84.3615 10.1638 85.9761 10.1951C87.5282 10.2159 88.8511 10.544 89.9448 11.1794C91.0386 11.8149 91.9084 12.6638 92.5542 13.7263C93.2104 14.7784 93.6532 15.9659 93.8823 17.2888C94.1219 18.6013 94.1584 19.9503 93.9917 21.3357ZM88.4448 22.3513L88.5698 21.3826C88.6427 20.768 88.6896 20.0753 88.7104 19.3044C88.7313 18.5336 88.6636 17.7888 88.5073 17.0701C88.3511 16.3409 88.049 15.7367 87.6011 15.2576C87.1636 14.7784 86.5177 14.518 85.6636 14.4763C84.7157 14.4347 83.9136 14.6274 83.2573 15.0544C82.6011 15.4711 82.0594 16.0336 81.6323 16.7419C81.2157 17.4399 80.8875 18.2003 80.6479 19.0232C80.4084 19.8461 80.2365 20.6378 80.1323 21.3982L80.0073 22.3669C79.9344 22.9815 79.8823 23.6794 79.8511 24.4607C79.8302 25.2315 79.8927 25.9815 80.0386 26.7107C80.1948 27.4399 80.4969 28.0492 80.9448 28.5388C81.3927 29.018 82.049 29.2732 82.9136 29.3044C83.8407 29.3461 84.6323 29.1534 85.2886 28.7263C85.9448 28.2888 86.4865 27.7159 86.9136 27.0076C87.3511 26.2992 87.6896 25.5336 87.9292 24.7107C88.1792 23.8878 88.3511 23.1013 88.4448 22.3513ZM107.148 27.1013C107.242 26.6117 107.205 26.1951 107.039 25.8513C106.882 25.5076 106.643 25.2159 106.32 24.9763C106.007 24.7367 105.648 24.5336 105.242 24.3669C104.846 24.1899 104.46 24.0284 104.085 23.8826C103.273 23.5597 102.471 23.1951 101.679 22.7888C100.888 22.3722 100.169 21.8826 99.5229 21.3201C98.8771 20.7576 98.3719 20.1013 98.0073 19.3513C97.6532 18.6013 97.5021 17.7211 97.5542 16.7107C97.6271 15.5544 97.9552 14.5597 98.5386 13.7263C99.1219 12.893 99.8667 12.2159 100.773 11.6951C101.69 11.1638 102.674 10.7784 103.726 10.5388C104.789 10.2888 105.825 10.1742 106.835 10.1951C108.273 10.2159 109.554 10.5076 110.679 11.0701C111.815 11.6326 112.705 12.4399 113.351 13.4919C113.997 14.5336 114.309 15.794 114.289 17.2732H108.992C109.013 16.6899 108.934 16.1847 108.757 15.7576C108.591 15.3201 108.315 14.9815 107.929 14.7419C107.544 14.4919 107.044 14.3617 106.429 14.3513C105.919 14.3409 105.408 14.4242 104.898 14.6013C104.388 14.768 103.945 15.0284 103.57 15.3826C103.195 15.7367 102.955 16.1951 102.851 16.7576C102.778 17.1847 102.846 17.5597 103.054 17.8826C103.263 18.1951 103.549 18.4659 103.914 18.6951C104.278 18.9138 104.658 19.1013 105.054 19.2576C105.46 19.4138 105.815 19.5492 106.117 19.6638C106.971 19.9867 107.789 20.3669 108.57 20.8044C109.361 21.2315 110.059 21.7367 110.664 22.3201C111.278 22.9034 111.747 23.5857 112.07 24.3669C112.403 25.1378 112.539 26.0336 112.476 27.0544C112.393 28.2315 112.08 29.2367 111.539 30.0701C110.997 30.9034 110.299 31.5805 109.445 32.1013C108.591 32.6222 107.653 33.0024 106.632 33.2419C105.611 33.4815 104.575 33.5961 103.523 33.5857C102.346 33.5649 101.247 33.3878 100.226 33.0544C99.2052 32.7107 98.3146 32.2159 97.5542 31.5701C96.7938 30.9138 96.2052 30.1117 95.7886 29.1638C95.3719 28.2055 95.174 27.1065 95.1948 25.8669L100.554 25.8826C100.523 26.4659 100.559 26.9815 100.664 27.4294C100.778 27.8669 100.966 28.2367 101.226 28.5388C101.497 28.8305 101.846 29.0544 102.273 29.2107C102.7 29.3565 103.216 29.4294 103.82 29.4294C104.33 29.4294 104.82 29.3513 105.289 29.1951C105.768 29.0284 106.174 28.7732 106.507 28.4294C106.841 28.0857 107.054 27.643 107.148 27.1013ZM131.429 19.5388L130.695 23.7576H119.335L120.07 19.5388H131.429ZM123.445 10.5076L119.492 33.2576H114.148L118.085 10.5076H123.445ZM136.57 10.5076L132.617 33.2576H127.289L131.226 10.5076H136.57ZM148.695 15.5544L140.32 33.2576H134.398L146.46 10.5076H150.242L148.695 15.5544ZM150.132 33.2576L147.82 15.0076L147.945 10.5076H151.507L155.71 33.2576H150.132ZM151.351 24.7732L150.601 29.0076H139.242L139.992 24.7732H151.351ZM161.335 10.5076L169.757 10.5232C171.143 10.544 172.419 10.794 173.585 11.2732C174.752 11.7524 175.669 12.4867 176.335 13.4763C177.002 14.4555 177.283 15.7107 177.179 17.2419C177.085 18.5024 176.804 19.5649 176.335 20.4294C175.867 21.2836 175.231 22.0128 174.429 22.6169C173.627 23.2211 172.684 23.7576 171.601 24.2263L169.664 25.2263H162.101L162.82 20.9919L167.96 21.0232C168.648 21.0128 169.257 20.8774 169.789 20.6169C170.33 20.3565 170.773 19.9867 171.117 19.5076C171.46 19.0284 171.679 18.4451 171.773 17.7576C171.856 17.1951 171.835 16.6951 171.71 16.2576C171.585 15.8097 171.346 15.4555 170.992 15.1951C170.638 14.9347 170.169 14.7888 169.585 14.7576L165.96 14.7419L162.742 33.2576H157.398L161.335 10.5076ZM169.601 33.2576L166.46 23.1951L171.882 23.1638L175.304 32.9919V33.2576H169.601ZM193.601 29.0388L192.867 33.2576H181.07L181.804 29.0388H193.601ZM186.945 10.5076L182.992 33.2576H177.648L181.585 10.5076H186.945ZM193.726 19.5388L193.023 23.6169H182.742L183.46 19.5388H193.726ZM196.851 10.5076L196.117 14.7419H184.273L185.023 10.5076H196.851Z" fill="white"/>
<path d="M36.5567 21.34V21.34C40.2625 21.34 43.2667 24.3442 43.2667 28.05V32.5967C43.2667 37.3633 40.26 41.6167 35.75 43.12C31.8633 44.44 27.5733 45.2467 23.9433 45.2467C10.0833 45.2467 0 35.6767 0 22.55C0 9.49667 10.45 0 24.8967 0C31.6027 0 38.9402 2.52532 43.6844 6.54684C43.8636 6.6988 43.8876 6.96449 43.7433 7.15V7.15C39.8567 11.88 33.66 13.86 27.6833 12.5033C26.73 12.2833 25.7767 12.1733 24.86 12.1733C19.1767 12.1733 15.0333 16.5733 15.0333 22.5867C15.0333 28.71 19.25 33.11 25.0067 33.11H25.0433C28.2333 33.0733 30.8 30.4333 30.8 27.2433C30.7267 23.98 33.33 21.34 36.5567 21.34Z" fill="white"/>
<path d="M43.2665 21.3401V32.5968C43.2665 37.3634 40.2599 41.6168 35.7499 43.1201C31.8632 44.4401 27.5732 45.2468 23.9432 45.2468C17.4532 45.2468 11.7698 43.1568 7.58984 39.5634C7.69984 39.6001 7.84651 39.6001 7.95651 39.6368C32.5965 44.5868 30.7265 27.2068 30.7265 27.2068C30.7265 25.5934 31.3865 24.1268 32.4499 23.0634C33.5132 22.0001 34.9798 21.3401 36.5932 21.3401H43.2665Z" fill="white"/>
</svg>
