<svg width="218" height="58" viewBox="0 0 218 58" fill="none" xmlns="http://www.w3.org/2000/svg">
<path d="M80.3042 27.1016L78.8354 36.4609C78.1375 37.2734 77.2625 37.9089 76.2104 38.3672C75.1584 38.8151 74.0542 39.1276 72.8979 39.3047C71.7521 39.4922 70.674 39.5755 69.6636 39.5547C68.0802 39.5339 66.7313 39.2214 65.6167 38.6172C64.5125 38.013 63.6323 37.1953 62.9761 36.1641C62.3198 35.1328 61.8771 33.9609 61.6479 32.6484C61.4188 31.3359 61.3927 29.9609 61.5698 28.5234L61.7417 27.2734C61.9396 25.7943 62.325 24.388 62.8979 23.0547C63.4813 21.7109 64.2365 20.5182 65.1636 19.4766C66.0907 18.4349 67.1896 17.6172 68.4604 17.0234C69.7417 16.4297 71.1896 16.1484 72.8042 16.1797C74.4813 16.2005 75.9032 16.5182 77.0698 17.1328C78.2469 17.737 79.1584 18.612 79.8042 19.7578C80.45 20.9036 80.825 22.3047 80.9292 23.9609L75.8198 23.9453C75.7677 23.2578 75.6375 22.6536 75.4292 22.1328C75.2313 21.6016 74.9136 21.1849 74.4761 20.8828C74.0386 20.5807 73.4396 20.4141 72.6792 20.3828C71.7625 20.3411 70.9813 20.5339 70.3354 20.9609C69.6896 21.3776 69.1479 21.9349 68.7104 22.6328C68.2834 23.3307 67.9448 24.0859 67.6948 24.8984C67.4552 25.7109 67.2834 26.487 67.1792 27.2266L67.0073 28.5391C66.924 29.237 66.8719 29.9766 66.8511 30.7578C66.8407 31.5391 66.9292 32.2734 67.1167 32.9609C67.3042 33.6484 67.6427 34.2109 68.1323 34.6484C68.6323 35.0859 69.3459 35.3151 70.2729 35.3359C70.6792 35.3464 71.0698 35.3203 71.4448 35.2578C71.8302 35.1953 72.2 35.0964 72.5542 34.9609C72.9188 34.8151 73.2677 34.6328 73.6011 34.4141L74.3042 30.8672H70.6011L71.2573 27.1016H80.3042ZM101.992 27.3359L101.882 28.2578C101.674 29.7474 101.273 31.1797 100.679 32.5547C100.096 33.9193 99.325 35.1328 98.3667 36.1953C97.4188 37.2578 96.2938 38.0964 94.9917 38.7109C93.6896 39.3151 92.2261 39.6016 90.6011 39.5703C89.0386 39.5391 87.7052 39.2057 86.6011 38.5703C85.5073 37.9349 84.6323 37.0859 83.9761 36.0234C83.3302 34.9609 82.8927 33.7682 82.6636 32.4453C82.4344 31.1224 82.4032 29.7578 82.5698 28.3516L82.6792 27.4297C82.8875 25.9505 83.2886 24.5339 83.8823 23.1797C84.4761 21.8151 85.2521 20.6016 86.2104 19.5391C87.1688 18.4766 88.299 17.6484 89.6011 17.0547C90.9032 16.4505 92.3615 16.1641 93.9761 16.1953C95.5282 16.2161 96.8511 16.5443 97.9448 17.1797C99.0386 17.8151 99.9084 18.6641 100.554 19.7266C101.21 20.7786 101.653 21.9661 101.882 23.2891C102.122 24.6016 102.158 25.9505 101.992 27.3359ZM96.4448 28.3516L96.5698 27.3828C96.6427 26.7682 96.6896 26.0755 96.7104 25.3047C96.7313 24.5339 96.6636 23.7891 96.5073 23.0703C96.3511 22.3411 96.049 21.737 95.6011 21.2578C95.1636 20.7786 94.5177 20.5182 93.6636 20.4766C92.7157 20.4349 91.9136 20.6276 91.2573 21.0547C90.6011 21.4714 90.0594 22.0339 89.6323 22.7422C89.2157 23.4401 88.8875 24.2005 88.6479 25.0234C88.4084 25.8464 88.2365 26.638 88.1323 27.3984L88.0073 28.3672C87.9344 28.9818 87.8823 29.6797 87.8511 30.4609C87.8302 31.2318 87.8927 31.9818 88.0386 32.7109C88.1948 33.4401 88.4969 34.0495 88.9448 34.5391C89.3927 35.0182 90.049 35.2734 90.9136 35.3047C91.8407 35.3464 92.6323 35.1536 93.2886 34.7266C93.9448 34.2891 94.4865 33.7161 94.9136 33.0078C95.3511 32.2995 95.6896 31.5339 95.9292 30.7109C96.1792 29.888 96.3511 29.1016 96.4448 28.3516ZM115.148 33.1016C115.242 32.612 115.205 32.1953 115.039 31.8516C114.882 31.5078 114.643 31.2161 114.32 30.9766C114.007 30.737 113.648 30.5339 113.242 30.3672C112.846 30.1901 112.46 30.0286 112.085 29.8828C111.273 29.5599 110.471 29.1953 109.679 28.7891C108.888 28.3724 108.169 27.8828 107.523 27.3203C106.877 26.7578 106.372 26.1016 106.007 25.3516C105.653 24.6016 105.502 23.7214 105.554 22.7109C105.627 21.5547 105.955 20.5599 106.539 19.7266C107.122 18.8932 107.867 18.2161 108.773 17.6953C109.69 17.1641 110.674 16.7786 111.726 16.5391C112.789 16.2891 113.825 16.1745 114.835 16.1953C116.273 16.2161 117.554 16.5078 118.679 17.0703C119.815 17.6328 120.705 18.4401 121.351 19.4922C121.997 20.5339 122.309 21.7943 122.289 23.2734H116.992C117.013 22.6901 116.934 22.1849 116.757 21.7578C116.591 21.3203 116.315 20.9818 115.929 20.7422C115.544 20.4922 115.044 20.362 114.429 20.3516C113.919 20.3411 113.408 20.4245 112.898 20.6016C112.388 20.7682 111.945 21.0286 111.57 21.3828C111.195 21.737 110.955 22.1953 110.851 22.7578C110.778 23.1849 110.846 23.5599 111.054 23.8828C111.263 24.1953 111.549 24.4661 111.914 24.6953C112.278 24.9141 112.658 25.1016 113.054 25.2578C113.46 25.4141 113.815 25.5495 114.117 25.6641C114.971 25.987 115.789 26.3672 116.57 26.8047C117.361 27.2318 118.059 27.737 118.664 28.3203C119.278 28.9036 119.747 29.5859 120.07 30.3672C120.403 31.138 120.539 32.0339 120.476 33.0547C120.393 34.2318 120.08 35.237 119.539 36.0703C118.997 36.9036 118.299 37.5807 117.445 38.1016C116.591 38.6224 115.653 39.0026 114.632 39.2422C113.611 39.4818 112.575 39.5964 111.523 39.5859C110.346 39.5651 109.247 39.388 108.226 39.0547C107.205 38.7109 106.315 38.2161 105.554 37.5703C104.794 36.9141 104.205 36.112 103.789 35.1641C103.372 34.2057 103.174 33.1068 103.195 31.8672L108.554 31.8828C108.523 32.4661 108.559 32.9818 108.664 33.4297C108.778 33.8672 108.966 34.237 109.226 34.5391C109.497 34.8307 109.846 35.0547 110.273 35.2109C110.7 35.3568 111.216 35.4297 111.82 35.4297C112.33 35.4297 112.82 35.3516 113.289 35.1953C113.768 35.0286 114.174 34.7734 114.507 34.4297C114.841 34.0859 115.054 33.6432 115.148 33.1016ZM139.429 25.5391L138.695 29.7578H127.335L128.07 25.5391H139.429ZM131.445 16.5078L127.492 39.2578H122.148L126.085 16.5078H131.445ZM144.57 16.5078L140.617 39.2578H135.289L139.226 16.5078H144.57ZM156.695 21.5547L148.32 39.2578H142.398L154.46 16.5078H158.242L156.695 21.5547ZM158.132 39.2578L155.82 21.0078L155.945 16.5078H159.507L163.71 39.2578H158.132ZM159.351 30.7734L158.601 35.0078H147.242L147.992 30.7734H159.351ZM169.335 16.5078L177.757 16.5234C179.143 16.5443 180.419 16.7943 181.585 17.2734C182.752 17.7526 183.669 18.487 184.335 19.4766C185.002 20.4557 185.283 21.7109 185.179 23.2422C185.085 24.5026 184.804 25.5651 184.335 26.4297C183.867 27.2839 183.231 28.013 182.429 28.6172C181.627 29.2214 180.684 29.7578 179.601 30.2266L177.664 31.2266H170.101L170.82 26.9922L175.96 27.0234C176.648 27.013 177.257 26.8776 177.789 26.6172C178.33 26.3568 178.773 25.987 179.117 25.5078C179.46 25.0286 179.679 24.4453 179.773 23.7578C179.856 23.1953 179.835 22.6953 179.71 22.2578C179.585 21.8099 179.346 21.4557 178.992 21.1953C178.638 20.9349 178.169 20.7891 177.585 20.7578L173.96 20.7422L170.742 39.2578H165.398L169.335 16.5078ZM177.601 39.2578L174.46 29.1953L179.882 29.1641L183.304 38.9922V39.2578H177.601ZM201.601 35.0391L200.867 39.2578H189.07L189.804 35.0391H201.601ZM194.945 16.5078L190.992 39.2578H185.648L189.585 16.5078H194.945ZM201.726 25.5391L201.023 29.6172H190.742L191.46 25.5391H201.726ZM204.851 16.5078L204.117 20.7422H192.273L193.023 16.5078H204.851Z" fill="#7155F0"/>
<path d="M44.5567 27.34C48.2625 27.34 51.2667 30.3442 51.2667 34.05V38.5967C51.2667 43.3633 48.26 47.6167 43.75 49.12C39.8633 50.44 35.5733 51.2467 31.9433 51.2467C18.0833 51.2467 8 41.6767 8 28.55C8 15.4967 18.45 6 32.8967 6C39.6027 6 46.9402 8.52532 51.6844 12.5468C51.8636 12.6988 51.8876 12.9645 51.7433 13.15C47.8567 17.88 41.66 19.86 35.6833 18.5033C34.73 18.2833 33.7767 18.1733 32.86 18.1733C27.1767 18.1733 23.0333 22.5733 23.0333 28.5867C23.0333 34.71 27.25 39.11 33.0067 39.11H33.0433C36.2333 39.0733 38.8 36.4333 38.8 33.2433C38.7267 29.98 41.33 27.34 44.5567 27.34Z" fill="url(#paint0_linear_3_1786)"/>
<path d="M51.2668 27.3398V38.5965C51.2668 43.3632 48.2601 47.6165 43.7501 49.1198C39.8634 50.4398 35.5734 51.2465 31.9434 51.2465C25.4534 51.2465 19.7701 49.1565 15.5901 45.5632C15.7001 45.5998 15.8468 45.5998 15.9568 45.6365C40.5968 50.5865 38.7268 33.2065 38.7268 33.2065C38.7268 31.5932 39.3868 30.1265 40.4501 29.0632C41.5134 27.9998 42.9801 27.3398 44.5934 27.3398H51.2668Z" fill="url(#paint1_linear_3_1786)"/>
<defs>
<linearGradient id="paint0_linear_3_1786" x1="8" y1="51.2467" x2="53.229" y2="7.26383" gradientUnits="userSpaceOnUse">
<stop stop-color="#B735E5"/>
<stop offset="1" stop-color="#2D32AA"/>
</linearGradient>
<linearGradient id="paint1_linear_3_1786" x1="15.5901" y1="51.2465" x2="37.7011" y2="18.2496" gradientUnits="userSpaceOnUse">
<stop stop-color="#1E88E5"/>
<stop offset="1" stop-color="#9142F5"/>
</linearGradient>
</defs>
</svg>
